<?xml version="1.0" standalone="no"?><!DOCTYPE svg PUBLIC "-//W3C//DTD SVG 1.1//EN" "http://www.w3.org/Graphics/SVG/1.1/DTD/svg11.dtd"><svg class="icon" width="200px" height="200.00px" viewBox="0 0 1024 1024" version="1.1" xmlns="http://www.w3.org/2000/svg"><path fill="#333333" d="M224 864a64 64 0 0 1-64-64V224a64 64 0 0 1 64-64h402.304a64 64 0 0 1 45.248 18.752l173.696 173.696A64 64 0 0 1 864 397.696V800a64 64 0 0 1-64 64H224zM626.176 224H224v576h96v-256h384v256h96V397.824L626.176 224zM640 608h-256v192h256v-192z m-32 64v64h-192v-64h192zM531.2 288v64H320V288h211.2z" /></svg>