<svg width="156.000000" height="151.000000" viewBox="0 0 156 151" fill="none" xmlns="http://www.w3.org/2000/svg" xmlns:xlink="http://www.w3.org/1999/xlink">
	<desc>
			Created with Pixso.
	</desc>
	<rect width="156.000000" height="151.000000" fill="#FFFFFF"/>
	<g clip-path="url(#clip2_2)">
		<path d="M72.0668 33.8914L72.0668 136.616C72.0668 140.718 68.1679 144 63.2942 144C58.4206 144 54.5217 140.718 54.5217 136.616L54.5217 33.8914L24.0126 59.6545C21.0884 62.116 16.2148 62.116 13.1931 59.6545C10.269 57.1931 10.269 53.0907 13.1931 50.5472L57.9332 12.8871C59.3953 11.6564 61.3448 11 63.2942 11C65.8285 11 71.8718 11.5743 71.8718 15.5126L72.0668 33.8914ZM84.8357 121.109L84.8357 18.3843C84.8357 14.2819 88.7346 11 93.6083 11C98.482 11 102.381 14.2819 102.381 18.3843L102.381 121.109L132.987 95.3455C135.912 92.884 140.785 92.884 143.807 95.3455C146.731 97.8069 146.731 101.909 143.807 104.453L99.0668 142.113C97.6047 143.344 95.6553 144 93.7058 144C91.1715 144 85.1282 143.426 85.1282 139.487L84.8357 121.109Z" fill-rule="evenodd" fill="#333333"/>
	</g>
	<defs>
		<clipPath id="clip2_2">
			<rect width="156.000000" height="151.000000" fill="white"/>
		</clipPath>
	</defs>
</svg>
