<?xml version="1.0" standalone="no"?><!DOCTYPE svg PUBLIC "-//W3C//DTD SVG 1.1//EN" "http://www.w3.org/Graphics/SVG/1.1/DTD/svg11.dtd"><svg class="icon" width="200px" height="200.00px" viewBox="0 0 1024 1024" version="1.1" xmlns="http://www.w3.org/2000/svg"><path fill="#333333" d="M800.768 480.768H159.744c-25.6 0-46.08-20.48-46.08-46.08s20.48-46.08 46.08-46.08h641.024L640 228.352c-15.36-15.36-15.36-40.96 0-56.832 15.36-15.36 40.96-15.36 56.832 0L931.84 406.528c7.68 7.68 11.776 17.92 11.776 28.16 0 13.312-3.584 45.056-28.16 45.056l-114.688 1.024zM256.512 547.84h641.024c25.6 0 46.08 20.48 46.08 46.08s-20.48 46.08-46.08 46.08H256.512l160.768 160.768c15.36 15.36 15.36 40.96 0 56.832-15.36 15.36-40.96 15.36-56.832 0l-235.008-235.008c-7.68-7.68-11.776-17.92-11.776-28.16 0-13.312 3.584-45.056 28.16-45.056l114.688-1.536z" /></svg>